<?xml version="1.0" encoding="UTF-8"?>
<svg fill="none" viewBox="0 0 103 80" xmlns="http://www.w3.org/2000/svg">
  <g fill="#171717">
    <path d="m0.15787 38.662-0.15787-1.3205c2.1163-0.8435 2.4875-2.0063 2.6454-4.3322 0.15786-1.7422 0.15786-4.0681 0.15786-5.9168v-14.045c0-1.8487 0-4.1746-0.15786-5.9168-0.15786-2.3258-0.52908-3.4845-2.6454-4.3322l0.15787-1.3205c2.0651 0.15761 3.4902 0.15761 4.8128 0.15761h9.7324c2.1674 0 3.8102 0 5.871-0.15761 0.3712 2.6922 0.5803 4.6474 0.7424 7.5526l-1.5361 0.2641c-0.687-1.9552-1.2714-3.0628-2.0651-3.9105-0.7935-0.8477-2.0096-1.2694-3.0165-1.427-1.3227-0.21299-2.4875-0.2641-4.5483-0.2641-2.4875 0-2.8032 0.42172-2.9611 2.5346-0.15786 1.6358-0.15786 3.5399-0.15786 5.4397v6.7603c1.8006 0 5.5041-0.1065 7.1937-0.2641 2.3808-0.2641 3.1232-1.1075 3.9169-3.5399l1.2714 0.2641c-0.1578 2.0618-0.1578 3.2204-0.1578 4.541 0 1.3205 0 2.5345 0.1578 4.5962l-1.2714 0.2641c-0.7937-2.4281-1.5361-3.2203-3.9169-3.5398-1.6939-0.213-5.4486-0.2641-7.1937-0.2641v7.1309c0 1.8488 0.10666 4.7027 0.15786 5.7592 0.10668 2.5899 1.007 3.0627 3.3878 3.0627 2.3808 0 4.1813-0.0511 5.6065-0.2641 1.8517-0.2641 2.6965-1.0052 3.49-2.1129 0.6359-1.0052 1.1649-2.1128 1.8519-4.0681l1.4292 0.2642c-0.2645 3.1693-0.6868 5.7592-1.2714 8.5025-3.8614-0.213-8.6742-0.2641-15.45-0.2641-2.5942 0-4.0192 0-6.0843 0.1576l0.008533 0.0086z"/>
    <path d="m29.292 22.13c0.7424-2.0063 0.9002-3.0116 0.9002-3.5398 0-0.3153-0.1578-0.4772-0.4223-0.4772-0.5292 0-1.5872 0.8435-4.0194 3.6977l-1.0069-0.8989c3.0166-4.3834 5.1841-6.3897 6.9291-6.3897 1.1095 0 2.1164 1.0053 2.1164 2.59 0 1.6911-0.8448 4.0127-1.6385 6.1809l-3.4389 9.7165c-0.5803 1.5847-0.687 2.0064-0.687 2.2194 0 0.2641 0.2134 0.5283 0.5292 0.5283 0.5801 0 1.6383-0.5794 4.2324-4.2769l1.0582 0.7412c-2.8032 5.4398-5.2395 6.9179-7.0912 6.9179-1.216 0-2.2742-1.0564-2.2742-2.4281 0-1.214 0.3712-2.377 1.6385-5.8103l3.1744-8.7667v-0.0043zm4.0746-22.13c1.5872 0 2.8032 1.214 2.8032 2.7987s-1.216 2.7987-2.8032 2.7987-2.8032-1.214-2.8032-2.7987 1.216-2.7987 2.8032-2.7987z"/>
    <path d="m53.432 5.1448c1.2716 1.427 1.7452 3.2204 1.7452 5.1756 0 5.1756-3.8102 8.8731-8.4652 8.8731-2.3808 0-4.1259-0.6858-5.6619-1.9552-1.6384 1.2694-2.0096 2.4835-2.0096 3.6975 0 1.5335 1.216 2.5346 3.5968 2.6411l6.4001 0.213c5.1328 0.1576 7.6161 3.2203 7.6161 7.1819 0 4.754-4.7105 8.9243-12.062 8.9243-5.9777 0-8.9943-2.6411-8.9943-6.2321 0-2.4835 1.2161-4.4387 4.2326-6.4962-2.2741-0.7924-3.8101-2.5346-3.8101-5.0181 0-2.0616 0.9514-4.1744 3.6522-6.232-1.216-1.6357-1.8005-3.3268-1.8005-5.5973 0-4.9669 3.968-8.8731 8.623-8.8731 3.0678 0 3.8614 1.0564 6.878 1.0564 1.3227 0 3.1744-0.05111 5.0261-0.21298l0.4225 0.89881-0.4225 1.9552h-4.975 0.0085zm-5.3419 22.658c-2.3808 0-4.2837 0-6.4555-0.1576-1.8517 1.7422-2.5941 3.4844-2.5941 5.1244 0 2.2705 1.9584 4.1746 6.4 4.1746 6.0844 0 8.3073-2.59 8.3073-5.0692 0-2.479-1.6939-4.0681-5.6619-4.0681l0.0042-0.0041zm-6.1354-17.802c0 4.6474 1.8004 7.0798 4.7616 7.0798 2.752 0 4.4458-1.8488 4.4458-6.4962 0-4.3833-1.8517-7.0244-4.7616-7.0244-2.5941 0-4.4458 2.0064-4.4458 6.4451v-0.0043z"/>
    <path d="m69.031 14.998c5.0772 0 8.9429 3.7485 8.9429 8.822 0 0.4216 0 0.7923-0.1067 1.214h-16.294c-0.1067 0.6348-0.1067 1.214-0.1067 2.0064 0 5.4396 3.2811 9.1373 7.5137 9.1373 3.3878 0 5.4486-1.1631 7.6161-4.2769l1.2714 0.7923c-1.5872 3.9615-4.7103 7.2374-9.4165 7.2374-6.6135 0-11.004-5.5974-11.004-12.042 0-7.3439 5.0261-12.886 11.584-12.886v-0.0042zm4.2837 7.9231c-0.0513-3.5909-2.4876-5.5461-5.4486-5.5461-3.2257 0-5.2908 2.4281-5.9265 5.5461h11.375z"/>
    <path d="m99.87 14.931c0 1.6358 0 3.4845 0.1066 5.1245 0.1579 2.164 0.4779 3.0116 2.4319 3.804l-0.158 1.2139c-1.851-0.1574-3.0163-0.1574-4.2323-0.1574s-2.3808 0-4.2326 0.1574l-0.1578-1.2139c1.9584-0.7924 2.2229-1.6357 2.3808-3.804 0.1579-1.6357 0.1579-3.4844 0.1579-5.1245v-5.5974c0-2.9563-1.8006-4.9669-4.6038-4.9669-3.6523 0-5.9265 2.4834-5.9265 5.8615v4.7028c0 1.6358 0 3.4845 0.1067 5.1245 0.1579 2.164 0.4779 3.0116 2.432 3.804l-0.1578 1.2139c-1.8517-0.1574-3.0166-0.1574-4.2326-0.1574s-2.3808 0-4.2326 0.1574l-0.1578-1.2139c1.9584-0.7924 2.2229-1.6357 2.3808-3.804 0.1579-1.6357 0.1579-3.4844 0.1579-5.1245v-1.3206c0-1.6357 0-3.3268-0.1579-4.9669-0.1579-2.164-0.6869-2.6411-2.5942-3.0117v-1.1075c2.432-1.1629 3.7547-2.0064 5.6066-3.6975l1.1093 0.42172c-0.158 1.6911-0.2645 3.1182-0.3158 4.4387l0.0513 0.05112c1.4292-2.6922 3.9168-4.805 7.0912-4.805 2.5941 0 4.7616 1.214 6.033 3.2758 0.687 1.214 1.1095 2.5346 1.1095 4.6474v6.0745h0.0042z"/>
    <path d="m7.0315 68.115c0 1.8487 0.0512 4.7028 0.15786 5.7592 0.26454 2.59 1.0069 3.0628 3.3878 3.0628 2.3808 0 3.8613 0 5.3974-0.2641 1.9028-0.3706 2.9099-1.2141 3.7034-2.4281 0.687-1.0052 1.2716-2.2194 1.9584-4.2768l1.5361 0.2641c-0.2645 3.3822-0.7424 6.0744-1.3227 9.0308-4.1813-0.213-8.8364-0.2641-15.608-0.2641-2.5942 0-4.0192 0-6.0843 0.1576l-0.15787-1.3207c2.1163-0.8433 2.4875-2.0063 2.6454-4.3322 0.15786-1.7422 0.15786-4.0681 0.15786-5.9168v-14.049c0-1.8488 0-4.1746-0.15786-5.9169-0.15788-2.3258-0.52908-3.4844-2.6454-4.3322l0.15787-1.3204c2.0651 0.1576 3.4902 0.1576 4.7105 0.1576 1.3227 0 2.752 0 4.8128-0.1576l0.15788 1.3204c-2.1163 0.8435-2.4875 2.0064-2.6454 4.3322-0.15787 1.7423-0.15788 4.0681-0.15788 5.9169v14.577h-0.00426z"/>
    <path d="m25.782 58.923c1.0069-1.8487 3.6523-3.8039 6.7712-3.8039 2.5942 0 4.6038 0.8987 5.871 2.7474 0.8448 1.2141 1.5872 3.327 1.5872 5.704v5.069c0 1.6359 0 3.1694 0.1067 4.8051 0.1067 1.7422 0.9515 3.0629 2.6454 3.8551l-0.687 2.1128c-3.6523-0.1576-5.0261-1.7422-5.504-4.1192h-0.1067c-1.4294 3.2205-3.7547 4.541-6.1356 4.541-3.3877 0-5.504-2.2194-5.504-5.0181 0-2.4833 1.2715-3.9616 3.3324-5.2821 1.9584-1.2693 5.4486-2.5346 8.1451-3.2203v-2.59c0-1.6357-0.4225-2.9052-1.1093-3.804-0.7937-1.0565-2.1675-1.4782-3.3324-1.4782-1.8006 0-3.2811 0.7413-5.0774 2.164l-1.0069-1.6912 0.0043 0.0086zm10.526 9.2437c-1.1094 0.3706-2.0651 0.7924-3.0679 1.2141-3.5967 1.5335-4.6549 3.1181-4.6549 4.541 0 1.4227 0.7936 2.6922 2.6454 2.6922 2.1675 0 5.0774-1.9 5.0774-5.5464v-2.9051 0.0042z"/>
    <path d="m57.754 60.128 3.4902-8.1873c1.4293-3.3268 1.6384-4.5408 1.6384-5.5462 0-1.1074-0.2646-1.9552-1.8518-2.7987l0.2134-1.214c1.536 0.1576 2.432 0.1576 3.5968 0.1576s1.9029 0 3.439-0.1576l0.1578 1.214c-0.9515 0.8435-1.5359 1.7978-2.5387 3.8041-0.7936 1.5846-1.4293 3.1692-2.065 4.5962l-9.3655 21.129c-1.0069 2.2705-2.0096 3.9105-3.0677 5.0181-0.9003 0.8987-2.3296 1.6911-4.0193 1.6911-1.4293 0-2.4874-0.95-2.4874-2.2194 0-1.163 0.7936-2.1639 2.0096-2.1639 1.0069 0 1.3738 0.2641 2.3296 0.2641 1.1093 0 1.903-0.8435 2.6965-2.5346l3.8102-8.2384-5.2395-12.941c-0.5803-1.4781-1.2715-3.4333-2.1163-5.3332-0.7936-1.7422-1.1648-2.2193-2.432-3.0628l0.2133-1.214c1.5361 0.1065 3.1233 0.1576 4.2838 0.1576 1.1606 0 2.1163-0.0511 3.6523-0.1576l0.1579 1.214c-1.1648 0.5282-1.5872 1.2693-1.5872 2.1128 0 1.2141 0.2133 2.2194 1.8005 6.181l3.2811 8.2384v-0.0086z"/>
    <path d="m73.654 55.016c5.0774 0 8.9386 3.7486 8.9386 8.8219 0 0.4218 0 0.7924-0.1065 1.2141h-16.295c-0.1065 0.6348-0.1065 1.214-0.1065 2.0064 0 5.4397 3.2809 9.1373 7.5135 9.1373 3.3878 0 5.4486-1.163 7.6161-4.2768l1.2716 0.7922c-1.5874 3.9616-4.7105 7.2375-9.4167 7.2375-6.6133 0-11.004-5.5975-11.004-12.043 0-7.3438 5.0263-12.886 11.584-12.886l0.0043-0.0043zm4.2837 7.9232c-0.0511-3.591-2.4874-5.5462-5.4486-5.5462-3.2255 0-5.2906 2.4281-5.9265 5.5462h11.375z"/>
    <path d="m97.38 58.64c-2.4874 0-4.5482 2.9053-4.5482 7.9743v2.4835c0 1.6357 0 3.4844 0.1067 5.1246 0.1578 2.164 0.6357 3.1181 2.961 3.804l-0.1578 1.2139c-1.8517-0.1576-3.5456-0.1576-4.7616-0.1576s-2.3809 0-4.2326 0.1576l-0.158-1.2139c1.9585-0.7924 2.2231-1.6359 2.3809-3.804 0.1578-1.6359 0.1578-3.4846 0.1578-5.1246v-1.3205c0-1.6359 0-3.327-0.1578-4.967-0.1578-2.1639-0.687-2.6409-2.5941-3.0116v-1.1076c2.432-1.1628 3.7547-2.0063 5.6064-3.6974l1.1093 0.4217c-0.1578 1.6911-0.2645 3.804-0.3156 5.1245l0.0511 0.0511c1.4294-3.4845 3.8614-5.4951 6.3488-5.4951 2.1675 0 3.3875 1.2141 3.3875 2.6411s-0.793 1.8487-1.903 1.8487c-1.3735 0-2.0092-0.95-3.2808-0.95v0.0043z"/>
  </g>
</svg>
