<svg width="1200" height="277" viewBox="0 0 1200 277" fill="none" xmlns="http://www.w3.org/2000/svg">
<path d="M180.081 110.812C180.927 114.07 179.977 117.533 177.589 119.901L173.215 124.238C168.936 128.48 161.681 126.483 160.163 120.645L131.406 10.0279C129.658 3.30619 136.857 -2.19958 142.862 1.26604L149.767 5.25132C151.955 6.51408 153.545 8.60483 154.181 11.0542L180.081 110.812Z" fill="#E55530"/>
<path d="M117.035 9.94125C115.581 4.34725 109.206 1.6857 104.222 4.59181C97.5427 8.48599 98.8483 18.5224 106.3 20.5689C112.765 22.3442 118.725 16.4437 117.035 9.94125Z" fill="#E55530"/>
<path d="M119.615 38.3107C122.868 39.201 125.398 41.7672 126.247 45.0387L127.822 51.1027C129.336 56.934 123.989 62.2233 118.193 60.627L61.2115 44.9319C54.522 43.0893 53.3691 34.0708 59.3788 30.5966L66.2787 26.6077C68.4538 25.3503 71.0397 25.0159 73.4619 25.6788L119.615 38.3107Z" fill="#E55530"/>
<path d="M136.527 84.4824C135.676 81.2253 133.159 78.6693 129.921 77.7746L30.797 50.3822C28.3632 49.7096 25.7618 50.0451 23.577 51.3133L16.6818 55.3159C10.6856 58.7965 11.8424 67.7995 18.5226 69.6431L128.457 99.984C134.259 101.585 139.612 96.285 138.087 90.4492L136.527 84.4824Z" fill="#E55530"/>
<path d="M0.210296 90.6931C0.192131 84.9124 5.67878 80.7083 11.2379 82.2433C17.6998 84.0276 19.817 92.1522 15.0513 96.877C9.55739 102.324 0.234637 98.4392 0.210296 90.6931Z" fill="#E55530"/>
<path d="M46.1629 91.794C42.9122 90.8958 39.4305 91.809 37.0349 94.188L3.0463 127.943C1.26256 129.715 0.258465 132.127 0.25714 134.644L0.252936 142.629C0.249276 149.584 8.61631 153.092 13.5527 148.206L55.6017 106.581C59.8785 102.347 57.9831 95.0598 52.1887 93.4589L46.1629 91.794Z" fill="#E55530"/>
<path d="M76.278 104.972C78.6698 102.608 82.1364 101.701 85.3756 102.59L91.3096 104.22C97.1133 105.814 99.0153 113.112 94.7313 117.348L13.5544 197.624C8.62158 202.502 0.266074 199.005 0.257422 192.059L0.247473 184.071C0.244321 181.54 1.25517 179.114 3.0531 177.337L76.278 104.972Z" fill="#E55530"/>
<path d="M75.5076 155.871C73.1195 158.238 72.1702 161.702 73.0161 164.96L98.9156 264.717C99.5515 267.167 101.142 269.258 103.33 270.52L110.235 274.506C116.24 277.971 123.439 272.465 121.691 265.744L92.9338 155.127C91.4162 149.289 84.1612 147.292 79.8824 151.534L75.5076 155.871Z" fill="#E55530"/>
<path d="M116.662 190.976C117.513 194.233 120.03 196.789 123.268 197.684L222.392 225.076C224.826 225.749 227.428 225.413 229.612 224.145L236.508 220.143C242.504 216.662 241.347 207.659 234.667 205.815L124.732 175.474C118.931 173.873 113.578 179.173 115.103 185.009L116.662 190.976Z" fill="#E55530"/>
<path d="M126.942 230.42C127.792 233.691 130.321 236.257 133.574 237.148L179.728 249.78C182.15 250.442 184.736 250.108 186.911 248.851L193.811 244.862C199.82 241.388 198.667 232.369 191.978 230.526L134.996 214.831C129.201 213.235 123.853 218.524 125.367 224.356L126.942 230.42Z" fill="#E55530"/>
<path d="M148.967 270.867C143.982 273.773 137.607 271.111 136.154 265.517C134.464 259.015 140.424 253.114 146.888 254.889C154.34 256.936 155.646 266.972 148.967 270.867Z" fill="#E55530"/>
<path d="M44.0791 193.64C43.2217 190.37 44.1737 186.891 46.575 184.518L51.0261 180.118C55.3063 175.888 62.5491 177.886 64.0679 183.716L79.0007 241.036C80.7538 247.765 73.5397 253.275 67.5336 249.795L60.6379 245.799C58.4642 244.539 56.8823 242.461 56.2439 240.027L44.0791 193.64Z" fill="#E55530"/>
<path d="M20.8624 210.064C16.7569 214.123 17.6452 220.989 22.6479 223.864C29.3515 227.715 37.3685 221.564 35.4103 214.07C33.7117 207.57 25.6347 205.346 20.8624 210.064Z" fill="#E55530"/>
<path d="M206.522 91.254C208.923 88.8807 209.875 85.4013 209.018 82.1319L196.853 35.745C196.215 33.3105 194.633 31.2326 192.459 29.9729L185.563 25.9767C179.557 22.4961 172.343 28.0064 174.096 34.7355L189.029 92.0553C190.548 97.8854 197.791 99.8835 202.071 95.6532L206.522 91.254Z" fill="#E55530"/>
<path d="M230.449 51.908C235.452 54.7826 236.34 61.6482 232.235 65.7072C227.462 70.4254 219.385 68.2012 217.687 61.7012C215.728 54.2079 223.746 48.0561 230.449 51.908Z" fill="#E55530"/>
<path d="M167.5 173.091C170.739 173.981 174.206 173.074 176.598 170.71L249.823 98.345C251.621 96.5681 252.631 94.1419 252.628 91.6109L252.618 83.6231C252.61 76.6768 244.254 73.1796 239.321 78.0577L158.145 158.334C153.86 162.57 155.763 169.868 161.566 171.462L167.5 173.091Z" fill="#E55530"/>
<path d="M215.842 181.494C213.446 183.873 209.964 184.786 206.714 183.888L200.688 182.223C194.893 180.622 192.998 173.335 197.275 169.101L239.324 127.476C244.26 122.59 252.627 126.098 252.624 133.053L252.619 141.038C252.618 143.555 251.614 145.967 249.83 147.739L215.842 181.494Z" fill="#E55530"/>
<path d="M241.639 193.439C247.198 194.974 252.684 190.77 252.666 184.989C252.642 177.243 243.319 173.358 237.825 178.805C233.06 183.53 235.177 191.655 241.639 193.439Z" fill="#E55530"/>
<path d="M818.57 178.021C817.462 179.601 815.618 180.774 812.455 182.085L805.818 184.576C804.053 185.239 802.884 186.927 802.884 188.813C802.884 191.311 804.908 193.337 807.405 193.337H856.658C859.155 193.337 861.179 191.311 861.179 188.813C861.179 186.927 860.01 185.239 858.246 184.576L851.608 182.085C848.451 180.776 846.669 179.607 845.617 178.04C844.563 176.469 844.118 174.312 844.118 170.708V85.125C844.118 82.6581 842.808 80.3768 840.679 79.1338C838.847 78.0638 836.625 77.8931 834.65 78.6703L806.396 89.7927C804.545 90.5215 803.327 92.3097 803.327 94.3006C803.327 96.5815 804.917 98.5534 807.145 99.0354L812.427 100.178L812.447 100.182C815.381 100.706 817.2 101.709 818.354 103.488C819.555 105.34 820.167 108.224 820.167 112.83V170.708C820.167 174.294 819.672 176.449 818.57 178.021Z" fill="white"/>
<path d="M994.667 182.084L994.657 182.089L988.024 184.577C986.26 185.24 985.091 186.928 985.091 188.814C985.091 191.312 987.115 193.338 989.611 193.338H1038.42C1040.92 193.338 1042.94 191.312 1042.94 188.814C1042.94 186.928 1041.77 185.24 1040.01 184.577L1033.37 182.086L1033.36 182.083C1030.32 180.888 1028.67 179.779 1027.7 178.237C1026.72 176.665 1026.32 174.449 1026.32 170.709V116.053C1026.32 114.335 1026.86 112.692 1027.94 111.451C1035.23 103.007 1045.32 97.7611 1055.12 97.7611C1062.96 97.7611 1068.88 100.224 1072.85 104.881C1076.86 109.568 1079.04 116.641 1079.04 126.136V170.709C1079.04 174.43 1078.59 176.651 1077.58 178.227C1076.59 179.782 1074.92 180.891 1071.99 182.085L1071.98 182.091L1065.35 184.577C1063.59 185.24 1062.42 186.928 1062.42 188.814C1062.42 191.312 1064.45 193.338 1066.94 193.338H1115.53C1118.03 193.338 1120.05 191.312 1120.05 188.814C1120.05 186.928 1118.88 185.24 1117.12 184.577L1110.5 182.094L1110.48 182.086C1107.34 180.784 1105.55 179.562 1104.49 177.964C1103.43 176.36 1102.99 174.195 1102.99 170.709V121.479C1102.99 107.98 1099.34 96.9911 1092.63 89.3617C1085.91 81.7154 1076.22 77.5614 1064.43 77.5614C1054.04 77.5614 1043.82 81.7313 1034.91 89.0686C1033.1 90.5626 1030.45 90.7541 1028.18 89.8694C1025.91 88.9864 1024.33 87.162 1024.33 84.9113C1024.33 82.5997 1023.13 80.4235 1021.15 79.216C1019.3 78.0916 1017.02 77.9373 1015.04 78.8027L988.387 90.45C986.654 91.2073 985.534 92.9201 985.534 94.8127C985.534 97.0541 987.096 98.9919 989.285 99.4656L994.614 100.619L994.624 100.621C997.643 101.246 999.478 102.395 1000.62 104.29C1001.82 106.263 1002.37 109.219 1002.37 113.718V170.709C1002.37 174.196 1001.93 176.354 1000.85 177.954C999.768 179.553 997.926 180.778 994.667 182.084Z" fill="white"/>
<path d="M581.07 182.084L581.059 182.089L574.427 184.577C572.662 185.24 571.493 186.928 571.493 188.814C571.493 191.312 573.517 193.338 576.014 193.338H624.824C627.321 193.338 629.345 191.312 629.345 188.814C629.345 186.928 628.176 185.24 626.412 184.577L619.773 182.086L619.765 182.083C616.727 180.888 615.073 179.779 614.107 178.237C613.123 176.665 612.727 174.449 612.727 170.709V116.053C612.727 114.335 613.267 112.692 614.34 111.451C621.635 103.007 631.721 97.7611 641.522 97.7611C649.364 97.7611 655.279 100.224 659.257 104.881C663.259 109.568 665.442 116.641 665.442 126.136V170.709C665.442 174.43 664.996 176.651 663.985 178.227C662.988 179.782 661.322 180.891 658.398 182.085L658.383 182.091L651.757 184.577C649.993 185.24 648.824 186.928 648.824 188.814C648.824 191.312 650.848 193.338 653.345 193.338H701.933C704.43 193.338 706.454 191.312 706.454 188.814C706.454 186.928 705.285 185.24 703.521 184.577L696.883 182.086C693.742 180.784 691.953 179.562 690.896 177.964C689.836 176.36 689.393 174.195 689.393 170.709V121.479C689.393 107.98 685.738 96.9911 679.032 89.3617C672.311 81.7154 662.627 77.5614 650.828 77.5614C640.444 77.5614 630.218 81.7313 621.314 89.0686C619.501 90.5626 616.848 90.7541 614.58 89.8694C612.316 88.9865 610.732 87.162 610.732 84.9113C610.732 82.5997 609.53 80.4235 607.548 79.216C605.702 78.0916 603.425 77.9373 601.444 78.8027L574.79 90.45C573.057 91.2073 571.936 92.9201 571.936 94.8127C571.936 97.0541 573.499 98.9919 575.688 99.4656L581.016 100.619L581.026 100.621C584.046 101.246 585.881 102.395 587.027 104.29C588.219 106.263 588.776 109.219 588.776 113.718V170.709C588.776 174.196 588.333 176.354 587.251 177.954C586.171 179.553 584.329 180.778 581.07 182.084Z" fill="white"/>
<path d="M813.742 44.0852C813.742 53.5323 820.849 61.3921 830.813 61.3921C840.757 61.3921 847.884 53.9962 847.884 44.0852C847.884 34.1232 840.041 27 830.813 27C821.585 27 813.742 34.1232 813.742 44.0852Z" fill="white"/>
<path d="M1138.53 157.404C1138.53 171.211 1140.63 180.792 1145.41 186.921C1150.25 193.126 1157.64 195.556 1167.56 195.556C1178.08 195.556 1189.28 191.774 1196.73 186.926C1198.72 185.631 1199.45 183.196 1198.83 181.02C1197.9 177.771 1194.39 176.155 1191.3 177.194C1187.18 178.576 1182.78 179.569 1178.64 179.569C1172.89 179.569 1168.99 177.936 1166.44 174.158C1163.81 170.264 1162.48 163.902 1162.48 154.077V102.044C1162.48 97.7194 1165.98 94.2133 1170.3 94.2133H1189.39C1193.37 94.2133 1196.6 90.9821 1196.6 86.9962C1196.6 83.0104 1193.37 79.7792 1189.39 79.7792H1170.3C1165.98 79.7792 1162.48 76.2731 1162.48 71.9481V55.4489C1162.48 53.6419 1161.5 51.9759 1159.93 51.093C1157.43 49.6953 1154.28 50.6765 1153.01 53.2426L1141.97 75.6891C1140.87 77.9174 1138.78 79.4928 1136.34 79.9345L1126.65 81.6862C1123.65 82.2293 1121.47 84.8455 1121.47 87.8994C1121.47 91.3865 1124.29 94.2133 1127.77 94.2133H1131.11C1135.21 94.2133 1138.53 97.5348 1138.53 101.632V157.404Z" fill="white"/>
<path fill-rule="evenodd" clip-rule="evenodd" d="M869.954 137.002C869.954 155.831 875.164 170.496 884.608 180.46C894.059 190.431 907.618 195.556 924.029 195.556C940.454 195.556 954.477 190.117 965.716 180.598C968.038 178.632 968.232 175.232 966.426 172.898C964.518 170.43 961.067 169.964 958.484 171.547C950.914 176.184 942.926 178.904 932.671 178.904C921.179 178.904 911.98 175.169 905.64 168.078C899.286 160.97 895.677 150.348 895.677 136.337C895.677 135.362 896.466 134.573 897.44 134.573H965.907C969.217 134.573 971.9 131.888 971.9 128.575H970.782L971.899 128.544C971.45 112.249 966.334 99.4803 957.699 90.7813C949.061 82.0797 937.013 77.5614 922.921 77.5614C892.035 77.5614 869.954 103.93 869.954 137.002ZM939.483 121.583L905.56 122.006C900.722 122.066 897.11 117.823 898.364 113.412C900.499 105.904 903.758 100.105 907.956 96.1922C912.134 92.297 917.294 90.2214 923.364 90.2214C929.399 90.2214 934.468 92.4524 938.388 96.4654C942.325 100.497 945.151 106.378 946.551 113.722C947.336 117.84 943.93 121.528 939.483 121.583Z" fill="white"/>
<path d="M728.284 157.404C728.284 171.211 730.386 180.792 735.168 186.921C740.01 193.126 747.4 195.556 757.32 195.556C767.836 195.556 779.036 191.774 786.489 186.926C788.478 185.631 789.207 183.196 788.585 181.02C787.658 177.771 784.15 176.155 781.053 177.194C776.934 178.576 772.533 179.569 768.399 179.569C762.649 179.569 758.747 177.936 756.197 174.158C753.569 170.264 752.234 163.902 752.234 154.077V102.044C752.234 97.7194 755.737 94.2133 760.059 94.2133H779.146C783.128 94.2133 786.357 90.9821 786.357 86.9962C786.357 83.0104 783.128 79.7792 779.146 79.7792H760.059C755.737 79.7792 752.234 76.2731 752.234 71.9481V55.4489C752.234 53.6419 751.258 51.9759 749.683 51.093C747.189 49.6953 744.034 50.6765 742.771 53.2426L731.721 75.6891C730.625 77.9174 728.536 79.4928 726.094 79.9345L716.409 81.6862C713.406 82.2293 711.222 84.8455 711.222 87.8994C711.222 91.3865 714.047 94.2133 717.531 94.2133H720.871C724.965 94.2133 728.284 97.5348 728.284 101.632V157.404Z" fill="white"/>
<path fill-rule="evenodd" clip-rule="evenodd" d="M454.121 137.002C454.121 155.831 459.331 170.496 468.775 180.46C478.226 190.431 491.785 195.556 508.196 195.556C524.621 195.556 538.644 190.117 549.883 180.598C552.205 178.632 552.399 175.232 550.593 172.898C548.685 170.43 545.234 169.964 542.651 171.547C535.081 176.184 527.092 178.904 516.838 178.904C505.346 178.904 496.147 175.169 489.807 168.078C483.453 160.97 479.844 150.348 479.844 136.337C479.844 135.362 480.633 134.573 481.607 134.573H550.074C553.384 134.573 556.067 131.888 556.067 128.575H554.949L556.066 128.544C555.617 112.249 550.501 99.4803 541.866 90.7813C533.228 82.0797 521.18 77.5614 507.088 77.5614C476.202 77.5614 454.121 103.93 454.121 137.002ZM523.65 121.583L489.727 122.006C484.889 122.066 481.277 117.823 482.531 113.412C484.666 105.904 487.925 100.105 492.123 96.1922C496.301 92.297 501.46 90.2214 507.531 90.2214C513.566 90.2214 518.634 92.4524 522.555 96.4654C526.492 100.497 529.318 106.378 530.718 113.722C531.502 117.84 528.097 121.528 523.65 121.583Z" fill="white"/>
<path d="M358.419 186.45C368.679 192.337 382.03 195.556 394.518 195.556C407.555 195.556 418.617 192.126 426.447 186.034C434.299 179.925 438.844 171.177 438.844 160.73C438.844 153.575 436.523 147.206 431.125 141.344C425.764 135.522 417.401 130.235 405.374 125.108C394.402 120.339 387.444 116.732 383.228 113.319C381.136 111.625 379.763 110.013 378.908 108.373C378.058 106.744 377.688 105.028 377.688 103.073C377.688 99.3666 379.423 96.2 382.62 93.9225C385.842 91.6261 390.581 90.2214 396.512 90.2214C403.747 90.2214 410.522 93.2037 414.948 98.2661C417.602 101.301 419.761 104.336 422.309 108.853C423.221 110.472 424.929 111.51 426.812 111.51C429.431 111.51 431.625 109.526 431.891 106.919L433.313 92.9386C433.748 88.667 431.43 84.465 427.278 82.9942C417.86 79.6578 406.563 77.5614 396.291 77.5614C384.261 77.5614 374.143 80.5985 367.004 86.0217C359.839 91.4643 355.732 99.2733 355.732 108.617C355.732 115.902 358.288 122.329 363.741 128.045C369.162 133.728 377.419 138.68 388.792 143.144C400.07 147.57 407 151.336 411.108 155.046C415.136 158.685 416.444 162.263 416.444 166.496C416.444 171.592 414.381 175.644 410.807 178.449C407.205 181.276 401.986 182.896 395.626 182.896C383.885 182.896 374.946 177.166 369.366 166.87L365.355 158.668C364.509 156.938 362.753 155.841 360.829 155.841C358.247 155.841 356.083 157.795 355.817 160.365L354.054 177.426C353.686 180.981 355.207 184.607 358.419 186.45Z" fill="white"/>
</svg>
