<?xml version="1.0" encoding="UTF-8"?>
<svg viewBox="0 0 234 67" xmlns="http://www.w3.org/2000/svg">
  <path d="m162.71 41.696c-0.205 0.2925-0.546 0.5098-1.132 0.7527l-1.228 0.4613c-0.326 0.1226-0.542 0.4352-0.542 0.7845 0 0.4627 0.374 0.8378 0.836 0.8378h9.112c0.462 0 0.836-0.3751 0.836-0.8378 0-0.3493-0.216-0.6619-0.542-0.7845l-1.228-0.4613c-0.584-0.2425-0.914-0.459-1.109-0.7492-0.195-0.2909-0.277-0.6903-0.277-1.3578v-15.849c0-0.4568-0.242-0.8793-0.636-1.1094-0.339-0.1982-0.75-0.2298-1.115-0.0859l-5.228 2.0597c-0.342 0.135-0.567 0.4661-0.567 0.8348 0 0.4224 0.294 0.7876 0.706 0.8768l0.977 0.2117 4e-3 7e-4c0.543 0.097 0.879 0.2828 1.093 0.6121 0.222 0.3429 0.335 0.8772 0.335 1.73v10.718c0 0.6641-0.092 1.0632-0.295 1.3543z" fill="#171717"/>
  <path d="m195.29 42.448-2e-3 8e-4 -1.227 0.461c-0.327 0.1226-0.543 0.4352-0.543 0.7844 0 0.4628 0.374 0.8379 0.836 0.8379h9.03c0.462 0 0.837-0.3751 0.837-0.8379 0-0.3492-0.217-0.6618-0.543-0.7844l-1.228-0.4614-2e-3 -6e-4c-0.562-0.2213-0.868-0.4266-1.046-0.7123-0.183-0.291-0.256-0.7014-0.256-1.394v-10.121c0-0.3183 0.1-0.6225 0.299-0.8524 1.349-1.5637 3.215-2.5351 5.028-2.5351 1.451 0 2.545 0.4561 3.281 1.3186 0.741 0.8678 1.145 2.1778 1.145 3.936v8.2542c0 0.689-0.083 1.1004-0.27 1.3922-0.185 0.288-0.493 0.4935-1.034 0.7146l-2e-3 1e-3 -1.226 0.4605c-0.327 0.1226-0.543 0.4352-0.543 0.7844 0 0.4628 0.375 0.8379 0.836 0.8379h8.989c0.462 0 0.837-0.3751 0.837-0.8379 0-0.3492-0.217-0.6618-0.543-0.7844l-1.225-0.46-3e-3 -0.0014c-0.581-0.2412-0.912-0.4674-1.107-0.7634-0.197-0.297-0.279-0.698-0.279-1.3435v-9.1166c0-2.4998-0.676-4.5348-1.916-5.9476-1.244-1.416-3.035-2.1852-5.218-2.1852-1.921 0-3.813 0.7722-5.46 2.1309-0.336 0.2767-0.826 0.3122-1.246 0.1483-0.419-0.1635-0.712-0.5014-0.712-0.9181 0-0.4281-0.222-0.8311-0.589-1.0547-0.341-0.2082-0.763-0.2368-1.129-0.0766l-4.931 2.1569c-0.321 0.1403-0.528 0.4575-0.528 0.8079 0 0.4151 0.289 0.774 0.694 0.8617l0.986 0.2135 2e-3 4e-4c0.558 0.1158 0.898 0.3285 1.11 0.6795 0.22 0.3653 0.323 0.9128 0.323 1.7458v10.554c0 0.6457-0.082 1.0455-0.282 1.3418-0.2 0.296-0.54 0.5229-1.143 0.7647z" fill="#171717"/>
  <path d="m118.77 42.448-2e-3 8e-4 -1.227 0.461c-0.326 0.1226-0.543 0.4352-0.543 0.7844 0 0.4628 0.375 0.8379 0.837 0.8379h9.03c0.462 0 0.836-0.3751 0.836-0.8379 0-0.3492-0.216-0.6618-0.543-0.7844l-1.228-0.4614-1e-3 -6e-4c-0.562-0.2213-0.868-0.4266-1.047-0.7123-0.182-0.291-0.255-0.7014-0.255-1.394v-10.121c0-0.3183 0.1-0.6225 0.298-0.8524 1.35-1.5637 3.216-2.5351 5.029-2.5351 1.451 0 2.545 0.4561 3.281 1.3186 0.74 0.8678 1.144 2.1778 1.144 3.936v8.2542c0 0.689-0.083 1.1004-0.27 1.3922-0.184 0.288-0.492 0.4934-1.033 0.7145l-3e-3 0.0011-1.226 0.4605c-0.326 0.1226-0.542 0.4352-0.542 0.7844 0 0.4628 0.374 0.8379 0.836 0.8379h8.989c0.462 0 0.836-0.3751 0.836-0.8379 0-0.3492-0.216-0.6618-0.542-0.7844l-1.228-0.4614c-0.581-0.2412-0.912-0.4674-1.108-0.7634-0.196-0.297-0.278-0.698-0.278-1.3435v-9.1166c0-2.4998-0.676-4.5348-1.917-5.9476-1.243-1.416-3.035-2.1852-5.218-2.1852-1.921 0-3.812 0.7722-5.46 2.1309-0.335 0.2767-0.826 0.3122-1.246 0.1483-0.418-0.1635-0.711-0.5014-0.711-0.9181 0-0.4281-0.223-0.8311-0.589-1.0547-0.342-0.2082-0.763-0.2368-1.13-0.0766l-4.931 2.1569c-0.32 0.1403-0.528 0.4575-0.528 0.8079 0 0.4151 0.289 0.774 0.694 0.8617l0.986 0.2135 2e-3 4e-4c0.559 0.1158 0.898 0.3285 1.11 0.6795 0.221 0.3653 0.324 0.9128 0.324 1.7458v10.554c0 0.6457-0.082 1.0455-0.282 1.3418-0.2 0.296-0.541 0.5229-1.144 0.7647z" fill="#171717"/>
  <path d="m161.81 16.893c0 1.7495 1.315 3.205 3.159 3.205 1.839 0 3.158-1.3696 3.158-3.205 0-1.8448-1.451-3.1639-3.158-3.1639-1.708 0-3.159 1.3191-3.159 3.1639z" fill="#171717"/>
  <path d="m221.9 37.878c0 2.5568 0.389 4.3312 1.273 5.4661 0.896 1.1491 2.263 1.5991 4.099 1.5991 1.945 0 4.017-0.7003 5.396-1.5982 0.368-0.2397 0.503-0.6907 0.388-1.0937-0.172-0.6015-0.821-0.9009-1.394-0.7085-0.762 0.256-1.576 0.44-2.341 0.44-1.064 0-1.785-0.3026-2.257-1.0022-0.486-0.721-0.733-1.8993-0.733-3.7186v-9.6357c0-0.8009 0.648-1.4502 1.447-1.4502h3.531c0.737 0 1.334-0.5983 1.334-1.3364 0-0.7382-0.597-1.3365-1.334-1.3365h-3.531c-0.799 0-1.447-0.6493-1.447-1.4502v-3.0554c0-0.3346-0.181-0.6432-0.472-0.8067-0.462-0.2588-1.045-0.0771-1.279 0.3981l-2.044 4.1567c-0.203 0.4127-0.589 0.7044-1.041 0.7862l-1.792 0.3244c-0.555 0.1006-0.96 0.5851-0.96 1.1506 0 0.6458 0.523 1.1692 1.168 1.1692h0.617c0.758 0 1.372 0.6151 1.372 1.3739v10.328z" fill="#171717"/>
  <path d="m172.21 34.1c0 3.4868 0.964 6.2026 2.711 8.0478 1.748 1.8464 4.257 2.7954 7.293 2.7954 3.038 0 5.633-1.0072 7.712-2.7698 0.429-0.3641 0.465-0.9939 0.131-1.4261-0.353-0.4569-0.991-0.5432-1.469-0.2502-1.401 0.8588-2.879 1.3625-4.776 1.3625-2.126 0-3.827-0.6916-5-2.0048-1.176-1.3162-1.844-3.2834-1.844-5.878 0-0.1804 0.146-0.3266 0.327-0.3266h12.666c0.612 0 1.109-0.4973 1.109-1.1107h-0.207l0.207-0.0057c-0.083-3.0177-1.03-5.3822-2.628-6.9931-1.597-1.6114-3.826-2.4481-6.433-2.4481-5.714 0-9.799 4.883-9.799 11.007zm12.863-2.8553-6.276 0.0782c-0.895 0.0112-1.563-0.7745-1.331-1.5913 0.395-1.3904 0.997-2.4643 1.774-3.1889 0.773-0.7213 1.728-1.1057 2.851-1.1057 1.116 0 2.054 0.4132 2.779 1.1563 0.728 0.7465 1.251 1.8356 1.51 3.1956 0.145 0.7626-0.485 1.4455-1.307 1.4558z" clip-rule="evenodd" fill="#171717" fill-rule="evenodd"/>
  <path d="m146 37.878c0 2.5568 0.389 4.3312 1.273 5.4661 0.896 1.1491 2.263 1.5991 4.098 1.5991 1.946 0 4.018-0.7003 5.397-1.5982 0.368-0.2397 0.502-0.6907 0.388-1.0937-0.172-0.6015-0.821-0.9009-1.394-0.7085-0.762 0.256-1.576 0.44-2.341 0.44-1.064 0-1.786-0.3026-2.257-1.0022-0.487-0.721-0.733-1.8993-0.733-3.7186v-9.6357c0-0.8009 0.648-1.4502 1.447-1.4502h3.531c0.737 0 1.334-0.5983 1.334-1.3364 0-0.7382-0.597-1.3365-1.334-1.3365h-3.531c-0.799 0-1.447-0.6493-1.447-1.4502v-3.0554c0-0.3346-0.181-0.6432-0.472-0.8067-0.462-0.2588-1.046-0.0771-1.279 0.3981l-2.044 4.1567c-0.203 0.4127-0.59 0.7044-1.041 0.7862l-1.792 0.3244c-0.556 0.1006-0.96 0.5851-0.96 1.1506 0 0.6458 0.523 1.1692 1.167 1.1692h0.618c0.758 0 1.372 0.6151 1.372 1.3739v10.328z" fill="#171717"/>
  <path d="m95.285 34.1c0 3.4868 0.9638 6.2026 2.711 8.0478 1.7484 1.8464 4.2564 2.7954 7.2924 2.7954 3.039 0 5.633-1.0072 7.713-2.7698 0.429-0.3641 0.465-0.9938 0.131-1.4261-0.353-0.4569-0.991-0.5432-1.469-0.2502-1.401 0.8588-2.879 1.3625-4.776 1.3625-2.126 0-3.828-0.6916-5-2.0048-1.176-1.3162-1.844-3.2834-1.844-5.878 0-0.1804 0.146-0.3266 0.326-0.3266h12.667c0.612 0 1.109-0.4973 1.109-1.1107h-0.207l0.206-0.0057c-0.083-3.0177-1.029-5.3822-2.627-6.9931-1.598-1.6114-3.826-2.4481-6.433-2.4481-5.7145 0-9.7994 4.883-9.7994 11.007zm12.862-2.8553-6.275 0.0782c-0.895 0.0112-1.564-0.7745-1.332-1.5913 0.395-1.3904 0.998-2.4643 1.775-3.1889 0.773-0.7213 1.727-1.1057 2.85-1.1057 1.117 0 2.055 0.4132 2.78 1.1563 0.728 0.7465 1.251 1.8356 1.51 3.1956 0.145 0.7626-0.485 1.4455-1.308 1.4558z" clip-rule="evenodd" fill="#171717" fill-rule="evenodd"/>
  <path d="m77.58 43.257c1.898 1.0901 4.368 1.6861 6.6783 1.6861 2.4118 0 4.4582-0.6351 5.9067-1.7632 1.4527-1.1313 2.2935-2.7514 2.2935-4.6859 0-1.325-0.4294-2.5044-1.428-3.59-0.9918-1.0781-2.5389-2.0571-4.7639-3.0066-2.0298-0.8832-3.317-1.5511-4.097-2.1832-0.3871-0.3137-0.641-0.6123-0.7992-0.9159-0.1572-0.3017-0.2257-0.6195-0.2257-0.9814 0-0.6865 0.321-1.2728 0.9123-1.6946 0.5962-0.4253 1.4729-0.6854 2.5702-0.6854 1.3384 0 2.5918 0.5523 3.4107 1.4898 0.4908 0.5619 0.8903 1.1239 1.3616 1.9606 0.1689 0.2996 0.4849 0.4919 0.8332 0.4919 0.4845 0 0.8904-0.3673 0.9395-0.8502l0.2632-2.5889c0.0804-0.791-0.3485-1.5692-1.1166-1.8416-1.7424-0.6178-3.8323-1.006-5.7326-1.006-2.2256 0-4.0974 0.5624-5.4181 1.5667-1.3255 1.0079-2.0853 2.454-2.0853 4.1843 0 1.349 0.4729 2.5392 1.4817 3.5977 1.003 1.0524 2.5304 1.9695 4.6345 2.7961 2.0864 0.8197 3.3685 1.5171 4.1283 2.2042 0.7453 0.6739 0.9873 1.3365 0.9873 2.1202 0 0.9437-0.3817 1.6942-1.0429 2.2136-0.6665 0.5236-1.6319 0.8234-2.8085 0.8234-2.172 0-3.8258-1.061-4.8581-2.9677l-0.742-1.519c-0.1565-0.3202-0.4813-0.5233-0.8373-0.5233-0.4777 0-0.878 0.3617-0.9272 0.8377l-0.3262 3.1595c-0.068 0.6582 0.2134 1.3298 0.8076 1.6711z" fill="#171717"/>
  <path d="m33.988 45.039c-0.6-0.1657-1.0665-0.6391-1.2242-1.2422l-0.289-1.105c-0.2826-1.0807 0.7094-2.0622 1.7846-1.7657l20.373 5.6187c1.238 0.3414 1.4524 2.0086 0.3412 2.6532l-1.2779 0.7412c-0.4048 0.2348-0.8869 0.297-1.3379 0.1724l-18.37-5.0726z" fill="#171717"/>
  <path d="m35.897 52.347c-0.6028-0.1649-1.0716-0.6401-1.229-1.2459l-0.2918-1.123c-0.2806-1.0798 0.7103-2.0593 1.7844-1.7637l10.56 2.9065c1.2397 0.3412 1.4534 2.0113 0.3397 2.6546l-1.2787 0.7387c-0.4031 0.2329-0.8823 0.2948-1.3312 0.172l-8.5531-2.3392z" fill="#171717"/>
  <path d="m38.75 58.591c-0.9237 0.5382-2.1051 0.0453-2.3745-0.9906-0.3131-1.2042 0.7913-2.2968 1.9893-1.9681 1.381 0.379 1.623 2.2376 0.3852 2.9587z" fill="#171717"/>
  <path d="m24.675 38.979c-0.1567-0.6034 0.0192-1.2448 0.4618-1.6832l0.8107-0.8032c0.7929-0.7855 2.1374-0.4156 2.4186 0.6655l5.3293 20.484c0.3239 1.2448-1.0102 2.2644-2.123 1.6226l-1.2797-0.738c-0.4054-0.2338-0.7002-0.621-0.818-1.0746l-4.7997-18.474z" fill="#171717"/>
  <path d="m19.313 44.29c-0.1589-0.6054 0.0176-1.2497 0.4626-1.6892l0.8248-0.8147c0.7932-0.7834 2.1355-0.4134 2.4169 0.6663l2.7673 10.615c0.3249 1.2461-1.012 2.2665-2.125 1.622l-1.2779-0.74c-0.4029-0.2333-0.696-0.6181-0.8143-1.0689l-2.2544-8.5902z" fill="#171717"/>
  <path d="m15.341 49.887c-0.9271-0.5323-1.0918-1.8037-0.3309-2.5554 0.8844-0.8737 2.3812-0.4619 2.696 0.7419 0.3629 1.3876-1.1229 2.5268-2.3651 1.8135z" fill="#171717"/>
  <path d="m25.279 27.87c0.4433-0.4377 1.0857-0.6058 1.686-0.441l1.0996 0.3018c1.0756 0.2951 1.4281 1.6465 0.6341 2.4311l-15.044 14.866c-0.9141 0.9033-2.4626 0.2557-2.4642-1.0306l-0.0018-1.4792c-6e-4 -0.4687 0.1867-0.918 0.5199-1.2471l13.57-13.401z" fill="#171717"/>
  <path d="m18.007 25.873c0.4439-0.4406 1.0891-0.6097 1.6916-0.4434l1.1166 0.3083c1.0739 0.2965 1.4251 1.646 0.6325 2.43l-7.7924 7.7083c-0.9148 0.9049-2.4654 0.2552-2.4647-1.0327l8e-4 -1.4787c2e-4 -0.4662 0.1863-0.9129 0.5169-1.2409l6.2987-6.2509z" fill="#171717"/>
  <path d="m11.183 25.226c-0.0034-1.0705 1.0134-1.849 2.0436-1.5648 1.1975 0.3304 1.5898 1.835 0.7067 2.71-1.0182 1.0086-2.7458 0.2892-2.7503-1.1452z" fill="#171717"/>
  <path d="m35.221 22.834c0.6 0.1656 1.0665 0.639 1.2242 1.2421l0.289 1.105c0.2826 1.0807-0.7094 2.0622-1.7846 1.7657l-20.373-5.6187c-1.238-0.3414-1.4524-2.0086-0.3412-2.6531l1.2778-0.7413c0.4049-0.2348 0.887-0.2969 1.338-0.1724l18.37 5.0727z" fill="#171717"/>
  <path d="m33.311 15.526c0.6028 0.1649 1.0716 0.6401 1.229 1.2459l0.2918 1.123c0.2806 1.0799-0.7103 2.0594-1.7844 1.7637l-10.56-2.9064c-1.2397-0.3413-1.4534-2.0113-0.3397-2.6547l1.2787-0.7387c0.4031-0.2328 0.8823-0.2948 1.3312-0.172l8.5531 2.3392z" fill="#171717"/>
  <path d="m30.458 9.2813c0.9237-0.53817 2.1051-0.04529 2.3745 0.99061 0.3131 1.2042-0.7913 2.2968-1.9893 1.9681-1.381-0.379-1.623-2.2376-0.3852-2.9587z" fill="#171717"/>
  <path d="m44.517 28.951c0.1567 0.6034-0.0192 1.2448-0.4618 1.6832l-0.8107 0.8031c-0.7929 0.7856-2.1374 0.4157-2.4187-0.6654l-5.3292-20.484c-0.3239-1.2447 1.0102-2.2643 2.123-1.6225l1.2797 0.73801c0.4054 0.23384 0.7002 0.62102 0.818 1.0746l4.7997 18.474z" fill="#171717"/>
  <path d="m49.879 23.64c0.1589 0.6055-0.0176 1.2498-0.4626 1.6893l-0.8248 0.8147c-0.7932 0.7834-2.1355 0.4133-2.4169-0.6663l-2.7673-10.615c-0.3249-1.2461 1.012-2.2666 2.125-1.622l1.2779 0.74c0.4029 0.2333 0.696 0.6181 0.8143 1.0689l2.2544 8.5901z" fill="#171717"/>
  <path d="m53.851 18.043c0.9271 0.5323 1.0918 1.8037 0.3309 2.5554-0.8844 0.8737-2.3812 0.4618-2.696-0.7419-0.3629-1.3876 1.1228-2.5268 2.3651-1.8135z" fill="#171717"/>
  <path d="m43.871 40.044c-0.4433 0.4377-1.0857 0.6058-1.686 0.441l-1.0997-0.3018c-1.0755-0.2952-1.428-1.6465-0.6341-2.4311l15.044-14.866c0.9141-0.9034 2.4626-0.2557 2.4642 1.0306l0.0018 1.4792c6e-4 0.4687-0.1867 0.918-0.5199 1.2471l-13.57 13.401z" fill="#171717"/>
  <path d="m51.143 42.04c-0.4439 0.4406-1.0891 0.6097-1.6916 0.4434l-1.1167-0.3083c-1.0738-0.2965-1.425-1.646-0.6324-2.43l7.7924-7.7083c0.9148-0.9049 2.4654-0.2552 2.4647 1.0327l-8e-4 1.4787c-2e-4 0.4661-0.1863 0.9129-0.5169 1.2409l-6.2987 6.2509z" fill="#171717"/>
  <path d="m57.968 42.688c0.0034 1.0705-1.0134 1.849-2.0436 1.5647-1.1975-0.3304-1.5898-1.8349-0.7067-2.7099 1.0181-1.0086 2.7458-0.2893 2.7503 1.1452z" fill="#171717"/>
</svg>
