<?xml version="1.0" encoding="UTF-8"?>
<svg fill="none" viewBox="0 0 367 80" xmlns="http://www.w3.org/2000/svg">
  <g fill="#171717">
    <path d="m114.05 74.842v-50.418h7.531l0.66 4.0879h0.395c2.11-2.7693 5.803-4.7473 10.828-4.7473 9.246 0 16.762 7.5312 16.762 18.74 0 11.209-7.399 18.74-16.776 18.74-5.011 0-8.455-2.1099-10.301-4.4835h-0.395v17.949h-8.718v0.1318h0.014zm27.458-32.337c0-6.5935-4.22-10.696-9.377-10.696-5.158 0-9.377 4.0879-9.377 10.696 0 6.608 4.219 10.696 9.377 10.696 5.157 0 9.377-4.0879 9.377-10.696z"/>
    <path d="m154.58 42.506c0-10.96 7.926-18.74 18.344-18.74 10.564 0 18.344 7.9268 18.344 18.74 0 10.96-7.926 18.74-18.344 18.74-10.564 0-18.344-7.9121-18.344-18.74zm27.97 0c0-6.4616-4.219-10.696-9.641-10.696-5.274 0-9.641 4.2198-9.641 10.696 0 6.4761 4.352 10.696 9.641 10.696 5.29 0 9.641-4.2198 9.641-10.696z"/>
    <path d="m197.6 60.586v-50.022h8.718v50.022h-8.718z"/>
    <path d="m238.78 24.425h9.245l-15.707 43.956c-1.582 4.3516-3.692 6.4615-9.377 6.4615h-8.44v-8.0586h7.121c1.319 0 1.978-0.6594 2.374-1.7143l0.791-2.3736-14.784-38.286h9.246l9.377 25.084h1.451l8.454-25.084h0.249v0.0146z"/>
    <path d="m249.74 62.447h8.85c0.396 2.3737 2.769 5.5385 8.323 5.5385 5.274 0 8.718-3.2967 8.718-8.3223v-5.011h-0.396c-1.978 2.1099-5.539 3.956-10.037 3.956-9.245 0-16.498-7.1209-16.498-17.421 0-10.3 7.121-17.421 16.498-17.421 4.748 0 8.323 1.978 10.564 4.6154h0.396l0.659-3.956h7.531v35.238c0 9.641-6.461 15.971-17.421 15.971-12.307 0-16.923-8.044-17.187-13.187zm25.744-21.26c0-5.6704-3.956-9.6411-9.114-9.6411-5.011 0-8.981 3.9561-8.981 9.6411s3.956 9.641 8.981 9.641c5.026 0 9.114-3.9707 9.114-9.641z"/>
    <path d="m290.27 42.506c0-10.96 7.927-18.74 18.344-18.74 10.564 0 18.345 7.9268 18.345 18.74 0 10.96-7.927 18.74-18.345 18.74-10.564 0-18.344-7.9121-18.344-18.74zm27.985 0c0-6.4616-4.351-10.696-9.641-10.696-5.274 0-9.641 4.2198-9.641 10.696 0 6.4761 4.352 10.696 9.641 10.696 5.275 0 9.641-4.2198 9.641-10.696z"/>
    <path d="m333.04 60.586v-36.161h7.531l0.66 3.4285h0.395c1.451-1.5824 5.011-4.0879 10.432-4.0879 8.323 0 14.257 5.9341 14.257 15.18v21.773h-8.718v-20.586c0-4.6154-3.297-8.0586-7.795-8.0586s-8.059 3.5605-8.059 8.0586v20.586h-8.703v-0.1319z"/>
    <path d="m67.062 56.366 21.377-12.41c1.1868-0.6593 1.8461-1.8461 1.8461-3.1648v-24.82c0-1.3187-0.6593-2.5055-1.8461-3.1649l-21.377-12.41c-1.1868-0.65934-2.5055-0.65934-3.6923 0l-21.392 12.41c-1.1868 0.6594-1.8461 1.8462-1.8461 3.1649v44.22l-15.048 8.7179-15.048-8.7179v-17.289l15.048-8.718 9.9048 5.6704v-11.619l-8.0586-4.6154c-0.5275-0.2637-1.1868-0.5274-1.8462-0.5274-0.6593 0-1.3186 0.1318-1.8461 0.5274l-21.392 12.425c-1.1868 0.6594-1.8462 1.8462-1.8462 3.1649v24.82c0 1.3187 0.65934 2.5055 1.8462 3.1648l21.377 12.41c1.1869 0.6593 2.5055 0.6593 3.6923 0l21.377-12.41c1.1869-0.6593 1.8462-1.8461 1.8462-3.1648v-44.22l0.2637-0.1319 14.799-8.586 15.048 8.7179v17.289l-15.048 8.7033-9.9048-5.6704v11.619l8.0586 4.6154c1.1868 0.6593 2.5055 0.6593 3.707 0z"/>
  </g>
</svg>
