<?xml version="1.0" encoding="UTF-8"?>
<svg viewBox="0 0 180 180" xmlns="http://www.w3.org/2000/svg">
  <path d="m119.62 76.058c0.469 1.6547-0.058 3.4135-1.382 4.6158l-2.426 2.2024c-2.373 2.1541-6.396 1.1398-7.238-1.8247l-15.947-56.174c-0.9691-3.4134 3.023-6.2094 6.353-4.4494l3.8293 2.0238c1.213 0.6412 2.095 1.7029 2.448 2.9468l14.363 50.659z" fill="#171717"/>
  <path d="m84.652 24.834c-0.8061-2.8407-4.3413-4.1923-7.1055-2.7166-3.704 1.9776-2.9799 7.0743 1.1527 8.1136 3.5848 0.9015 6.8898-2.0949 5.9528-5.397z" fill="#171717"/>
  <path d="m86.083 39.24c1.8039 0.4521 3.2067 1.7553 3.6778 3.4166l0.8732 3.0794c0.8398 2.9613-2.1257 5.6473-5.3397 4.8366l-31.599-7.9703c-3.7096-0.9356-4.349-5.5154-1.0163-7.2797l3.8263-2.0256c1.2062-0.6386 2.6403-0.8084 3.9835-0.4717l25.594 6.4147z" fill="#171717"/>
  <path d="m95.462 62.687c-0.4719-1.654-1.8679-2.952-3.6634-3.4064l-54.97-13.91c-1.3497-0.3415-2.7923-0.1712-4.0039 0.4729l-3.8237 2.0325c-3.3252 1.7676-2.6837 6.3395 1.0208 7.2757l60.964 15.408c3.2173 0.8132 6.1858-1.8784 5.3402-4.8419l-0.8647-3.0301z" fill="#171717"/>
  <path d="m19.867 65.841c-0.0101-2.9355 3.0325-5.0704 6.1154-4.291 3.5834 0.9061 4.7575 5.032 2.1147 7.4313-3.0467 2.766-8.2166 0.7933-8.2301-3.1403z" fill="#171717"/>
  <path d="m45.35 66.4c-1.8027-0.4562-3.7335 0.0076-5.062 1.2157l-18.848 17.142c-0.9892 0.8996-1.546 2.1247-1.5468 3.4029l-0.0023 4.055c-2e-3 3.5318 4.6379 5.3134 7.3754 2.8318l23.318-21.138c2.3717-2.15 1.3206-5.8507-1.8927-6.6637l-3.3416-0.8454z" fill="#171717"/>
  <path d="m62.05 73.092c1.3264-1.2003 3.2488-1.6612 5.0451-1.2094l3.2907 0.8276c3.2184 0.8094 4.2732 4.5153 1.8975 6.6667l-45.017 40.766c-2.7354 2.477-7.369 0.701-7.3738-2.827l-0.0055-4.056c-0.0018-1.285 0.5588-2.517 1.5559-3.42l40.607-36.748z" fill="#171717"/>
  <path d="m61.623 98.939c-1.3244 1.2026-1.8508 2.9606-1.3817 4.6156l14.363 50.659c0.3526 1.244 1.2346 2.306 2.448 2.947l3.8293 2.024c3.3299 1.76 7.322-1.036 6.353-4.45l-15.948-56.173c-0.8416-2.9646-4.8649-3.9789-7.2377-1.8248l-2.426 2.2025z" fill="#171717"/>
  <path d="m84.446 116.77c0.4719 1.654 1.8679 2.952 3.6634 3.406l54.97 13.91c1.349 0.342 2.792 0.172 4.003-0.472l3.824-2.033c3.325-1.768 2.684-6.339-1.021-7.276l-60.964-15.407c-3.2174-0.814-6.1858 1.878-5.3402 4.842l0.8647 3.03z" fill="#171717"/>
  <path d="m90.146 136.8c0.4711 1.661 1.8739 2.964 3.6778 3.417l25.595 6.414c1.343 0.337 2.777 0.167 3.983-0.471l3.826-2.026c3.333-1.764 2.694-6.344-1.016-7.28l-31.599-7.97c-3.214-0.811-6.1795 1.875-5.3398 4.836l0.8733 3.08z" fill="#171717"/>
  <path d="m102.36 157.34c-2.764 1.475-6.2993 0.124-7.1053-2.717-0.937-3.302 2.368-6.298 5.9533-5.397 4.132 1.039 4.856 6.136 1.152 8.114z" fill="#171717"/>
  <path d="m44.194 118.12c-0.4755-1.66 0.0525-3.427 1.3841-4.632l2.4684-2.234c2.3736-2.148 6.3901-1.134 7.2324 1.827l8.2809 29.108c0.9722 3.417-3.0284 6.216-6.3591 4.448l-3.824-2.029c-1.2054-0.64-2.0826-1.695-2.4367-2.932l-6.746-23.556z" fill="#171717"/>
  <path d="m31.32 126.46c-2.2767 2.061-1.7841 5.548 0.9902 7.008 3.7175 1.956 8.1633-1.168 7.0774-4.974-0.942-3.3-5.4211-4.43-8.0676-2.034z" fill="#171717"/>
  <path d="m134.28 66.126c1.331-1.2052 1.859-2.9721 1.384-4.6323l-6.746-23.556c-0.354-1.2362-1.232-2.2914-2.437-2.9311l-3.824-2.0293c-3.331-1.7676-7.331 1.0306-6.359 4.4478l8.281 29.108c0.842 2.9606 4.859 3.9753 7.232 1.827l2.469-2.234z" fill="#171717"/>
  <path d="m147.55 46.145c2.775 1.4597 3.267 4.9462 0.99 7.0075-2.646 2.396-7.125 1.2665-8.067-2.0344-1.086-3.8052 3.36-6.9292 7.077-4.9731z" fill="#171717"/>
  <path d="m112.64 107.68c1.796 0.452 3.719-9e-3 5.045-1.209l40.607-36.748c0.997-0.9023 1.558-2.1344 1.556-3.4197l-6e-3 -4.0564c-4e-3 -3.5274-4.638-5.3034-7.373-2.8262l-45.017 40.766c-2.376 2.152-1.321 5.857 1.897 6.667l3.291 0.827z" fill="#171717"/>
  <path d="m139.45 111.95c-1.329 1.208-3.259 1.672-5.062 1.216l-3.342-0.845c-3.213-0.813-4.264-4.514-1.892-6.664l23.318-21.138c2.737-2.4815 7.377-0.6999 7.375 2.8319l-2e-3 4.0549c-1e-3 1.2783-0.558 2.5033-1.547 3.4029l-18.848 17.141z" fill="#171717"/>
  <path d="m153.75 118.02c3.082 0.78 6.125-1.355 6.115-4.291-0.014-3.933-5.184-5.906-8.23-3.14-2.643 2.399-1.469 6.525 2.115 7.431z" fill="#171717"/>
</svg>
